Format : AVI
Format/Info : Audio Video Interleave
Format profile : OpenDML
File size : 1.07 GiB
Duration : 1h 38mn
Overall bit rate : 1 556 Kbps
Writing application : Lavf52.39.1

Video
ID : 0
Format : MPEG-4 Visual
Format settings, BVOP : 1
Format settings, QPel : No
Format settings, GMC : No warppoints
Format settings, Matrix : Default (H.263)
Muxing mode : Packed bitstream
Codec ID : DX50
Codec ID/Hint : DivX 5
Duration : 1h 38mn
Bit rate : 77.6 Kbps
Width : 720 pixels
Height : 320 pixels
Display aspect ratio : 2.25:1
Frame rate : 25.000 fps
Color space : YUV
Chroma subsampling : 4:2:0
Bit depth : 8 bits
Scan type : Progressive
Compression mode : Lossy
Bits/(Pixel*Frame) : 0.013
Stream size : 54.4 MiB (5%)
Writing library : DivX 6.8.5 (UTC 2009-08-20)

Audio
ID : 1
Format : MPEG Audio
Format version : Version 1
Codec ID : 50
Duration : 1h 38mn
Bit rate : 64.0 Kbps
Channel(s) : 2 channels
Sampling rate : 48.0 KHz
Compression mode : Lossy
Stream size : 44.9 MiB (4%)
Alignment : Aligned on interleaves 